<svg xmlns="http://www.w3.org/2000/svg" viewBox="0 0 24 24" width="24" height="24" fill="none">
  <rect width="24" height="24" rx="10" ry="10" fill="#A259FF" />
  <circle cx="7.5" cy="6" r="1.5" fill="white" />
  <path d="M6.5 9C6.5 8.44772 6.94772 8 7.5 8H8C8.55228 8 9 8.44772 9 9V15C9 15.5523 9.44772 16 10 16C10.5523 16 11 16.4477 11 17C11 17.5523 10.5523 18 10 18H7.5C6.94772 18 6.5 17.5523 6.5 17V9Z" fill="white" />
  <path d="M11.5 13.5C11.8905 13.5 12.2654 13.6641 12.5303 13.9697L15.5 17.5L20 11.5C20.3208 11.0583 20.9448 10.9624 21.3865 11.2832C21.8281 11.6041 21.924 12.228 21.6032 12.6697L16 20L11.4697 15.0303C11.2049 14.7248 11.1514 14.2759 11.3306 13.9024C11.5098 13.5289 11.8854 13.5 11.5 13.5Z" fill="white" />
</svg>